<svg xmlns="http://www.w3.org/2000/svg" xmlns:xlink="http://www.w3.org/1999/xlink" width="282" zoomAndPan="magnify" viewBox="0 0 211.5 155.999997" height="208" preserveAspectRatio="xMidYMid meet" version="1.0"><defs><clipPath id="850e313e29"><path d="M 0 0.183594 L 211 0.183594 L 211 155.816406 L 0 155.816406 Z M 0 0.183594 " clip-rule="nonzero"/></clipPath><clipPath id="71f236c49b"><path d="M 99 21.488281 L 112 21.488281 L 112 35 L 99 35 Z M 99 21.488281 " clip-rule="nonzero"/></clipPath><clipPath id="8ce848f8d3"><path d="M 99 83 L 112 83 L 112 127.238281 L 99 127.238281 Z M 99 83 " clip-rule="nonzero"/></clipPath><clipPath id="eccaea15b5"><path d="M 57.632812 30 L 153.632812 30 L 153.632812 50 L 57.632812 50 Z M 57.632812 30 " clip-rule="nonzero"/></clipPath><clipPath id="b587ed4fda"><path d="M 57.632812 68 L 153.632812 68 L 153.632812 88 L 57.632812 88 Z M 57.632812 68 " clip-rule="nonzero"/></clipPath><clipPath id="4e9824b5ab"><path d="M 136 123 L 149 123 L 149 127.238281 L 136 127.238281 Z M 136 123 " clip-rule="nonzero"/></clipPath><clipPath id="76b4e5ca41"><path d="M 129 123 L 136 123 L 136 127.238281 L 129 127.238281 Z M 129 123 " clip-rule="nonzero"/></clipPath><clipPath id="bd2ce03534"><path d="M 79 123 L 128 123 L 128 127.238281 L 79 127.238281 Z M 79 123 " clip-rule="nonzero"/></clipPath><clipPath id="31efe7e450"><path d="M 63 123 L 78 123 L 78 127.238281 L 63 127.238281 Z M 63 123 " clip-rule="nonzero"/></clipPath></defs><g clip-path="url(#850e313e29)"><path fill="#ffffff" d="M 0 0.183594 L 211.5 0.183594 L 211.5 156.183594 L 0 156.183594 Z M 0 0.183594 " fill-opacity="1" fill-rule="nonzero"/><path fill="#398fe5" d="M 0 0.183594 L 211.5 0.183594 L 211.5 156.183594 L 0 156.183594 Z M 0 0.183594 " fill-opacity="1" fill-rule="nonzero"/></g><path fill="#a0792b" d="M 101.441406 23.449219 L 109.824219 23.449219 L 109.824219 125.28125 L 101.441406 125.28125 Z M 101.441406 23.449219 " fill-opacity="1" fill-rule="nonzero"/><path fill="#a0792b" d="M 105.632812 23.449219 L 109.824219 23.449219 L 109.824219 125.28125 L 105.632812 125.28125 Z M 105.632812 23.449219 " fill-opacity="0.498" fill-rule="nonzero"/><path fill="#c1973a" d="M 151.6875 39.917969 L 150.042969 41.035156 L 140.5625 47.398438 L 59.578125 47.398438 L 59.578125 32.4375 L 140.5625 32.4375 L 150.90625 39.390625 Z M 151.6875 39.917969 " fill-opacity="1" fill-rule="nonzero"/><path fill="#c1973a" d="M 151.6875 39.917969 L 150.042969 41.035156 L 139.757812 36.332031 L 63.769531 36.332031 L 63.769531 47.398438 L 59.578125 47.398438 L 59.578125 32.4375 L 140.5625 32.4375 L 150.90625 39.390625 Z M 151.6875 39.917969 " fill-opacity="0.498" fill-rule="nonzero"/><path fill="#c1973a" d="M 151.6875 39.917969 L 140.5625 47.398438 L 59.578125 47.398438 L 59.578125 42.5625 L 139.054688 42.5625 L 150.90625 39.390625 Z M 151.6875 39.917969 " fill-opacity="0.498" fill-rule="nonzero"/><path fill="#c1973a" d="M 151.6875 70.527344 L 151.6875 85.507812 L 70.703125 85.507812 L 61.125 79.066406 L 59.578125 78.007812 L 59.910156 77.773438 L 70.703125 70.527344 Z M 151.6875 70.527344 " fill-opacity="1" fill-rule="nonzero"/><path fill="#c1973a" d="M 151.6875 70.527344 L 151.6875 73.757812 L 71.917969 73.757812 L 61.125 79.066406 L 59.578125 78.007812 L 59.910156 77.773438 L 70.703125 70.527344 Z M 151.6875 70.527344 " fill-opacity="0.498" fill-rule="nonzero"/><path fill="#c1973a" d="M 151.6875 70.527344 L 151.6875 85.507812 L 70.703125 85.507812 L 59.578125 78.007812 L 59.910156 77.773438 L 71.019531 80.59375 L 146.675781 80.59375 L 146.675781 70.527344 Z M 151.6875 70.527344 " fill-opacity="0.498" fill-rule="nonzero"/><g clip-path="url(#71f236c49b)"><path fill="#263442" d="M 109.820312 34.398438 C 108.738281 34.398438 107.859375 33.523438 107.859375 32.4375 L 107.859375 25.40625 L 103.40625 25.40625 L 103.40625 32.4375 C 103.40625 33.523438 102.53125 34.398438 101.449219 34.398438 C 100.367188 34.398438 99.488281 33.523438 99.488281 32.4375 L 99.488281 23.449219 C 99.488281 22.363281 100.367188 21.488281 101.449219 21.488281 L 109.820312 21.488281 C 110.902344 21.488281 111.777344 22.363281 111.777344 23.449219 L 111.777344 32.4375 C 111.777344 33.523438 110.902344 34.398438 109.820312 34.398438 Z M 109.820312 34.398438 " fill-opacity="1" fill-rule="nonzero"/></g><path fill="#263442" d="M 101.445312 92.464844 C 100.363281 92.464844 99.488281 91.589844 99.488281 90.503906 L 99.488281 85.503906 C 99.488281 84.421875 100.363281 83.546875 101.445312 83.546875 C 102.53125 83.546875 103.40625 84.421875 103.40625 85.503906 L 103.40625 90.503906 C 103.40625 91.589844 102.53125 92.464844 101.445312 92.464844 Z M 101.445312 92.464844 " fill-opacity="1" fill-rule="nonzero"/><path fill="#263442" d="M 101.453125 101.28125 C 100.375 101.28125 99.496094 100.410156 99.496094 99.328125 L 99.488281 96.335938 C 99.484375 95.253906 100.359375 94.371094 101.441406 94.371094 C 101.441406 94.371094 101.445312 94.371094 101.445312 94.371094 C 102.527344 94.371094 103.402344 95.246094 103.40625 96.324219 L 103.414062 99.316406 C 103.414062 100.402344 102.542969 101.28125 101.460938 101.28125 C 101.457031 101.28125 101.457031 101.28125 101.453125 101.28125 Z M 101.453125 101.28125 " fill-opacity="1" fill-rule="nonzero"/><g clip-path="url(#8ce848f8d3)"><path fill="#263442" d="M 109.820312 127.238281 L 101.449219 127.238281 C 100.367188 127.238281 99.488281 126.363281 99.488281 125.28125 L 99.488281 105.394531 C 99.488281 104.3125 100.367188 103.4375 101.449219 103.4375 C 102.53125 103.4375 103.40625 104.3125 103.40625 105.394531 L 103.40625 123.324219 L 107.859375 123.324219 L 107.859375 85.503906 C 107.859375 84.421875 108.738281 83.546875 109.820312 83.546875 C 110.902344 83.546875 111.777344 84.421875 111.777344 85.503906 L 111.777344 125.28125 C 111.777344 126.363281 110.902344 127.238281 109.820312 127.238281 Z M 109.820312 127.238281 " fill-opacity="1" fill-rule="nonzero"/></g><path fill="#263442" d="M 101.445312 72.472656 C 100.363281 72.472656 99.488281 71.597656 99.488281 70.515625 L 99.488281 47.40625 C 99.488281 46.324219 100.363281 45.449219 101.445312 45.449219 C 102.53125 45.449219 103.40625 46.324219 103.40625 47.40625 L 103.40625 70.515625 C 103.40625 71.597656 102.53125 72.472656 101.445312 72.472656 Z M 101.445312 72.472656 " fill-opacity="1" fill-rule="nonzero"/><path fill="#263442" d="M 109.820312 72.472656 C 108.738281 72.472656 107.859375 71.597656 107.859375 70.515625 L 107.859375 47.40625 C 107.859375 46.324219 108.738281 45.449219 109.820312 45.449219 C 110.902344 45.449219 111.777344 46.324219 111.777344 47.40625 L 111.777344 70.515625 C 111.777344 71.597656 110.902344 72.472656 109.820312 72.472656 Z M 109.820312 72.472656 " fill-opacity="1" fill-rule="nonzero"/><path fill="#263442" d="M 78.148438 34.390625 L 73.3125 34.390625 C 72.230469 34.390625 71.355469 33.515625 71.355469 32.433594 C 71.355469 31.351562 72.230469 30.472656 73.3125 30.472656 L 78.148438 30.472656 C 79.230469 30.472656 80.105469 31.351562 80.105469 32.433594 C 80.105469 33.515625 79.226562 34.390625 78.148438 34.390625 Z M 78.148438 34.390625 " fill-opacity="1" fill-rule="nonzero"/><g clip-path="url(#eccaea15b5)"><path fill="#263442" d="M 140.558594 49.363281 L 59.582031 49.363281 C 58.496094 49.363281 57.621094 48.488281 57.621094 47.40625 L 57.621094 32.433594 C 57.621094 31.351562 58.496094 30.472656 59.582031 30.472656 L 66.816406 30.472656 C 67.898438 30.472656 68.773438 31.351562 68.773438 32.433594 C 68.773438 33.515625 67.898438 34.390625 66.816406 34.390625 L 61.539062 34.390625 L 61.539062 45.449219 L 139.960938 45.449219 L 148.175781 39.917969 L 139.960938 34.390625 L 84.644531 34.390625 C 83.558594 34.390625 82.683594 33.515625 82.683594 32.433594 C 82.683594 31.351562 83.558594 30.472656 84.644531 30.472656 L 140.558594 30.472656 C 140.949219 30.472656 141.332031 30.59375 141.65625 30.808594 L 152.78125 38.296875 C 153.320312 38.660156 153.644531 39.265625 153.644531 39.917969 C 153.644531 40.570312 153.320312 41.179688 152.78125 41.542969 L 141.65625 49.03125 C 141.332031 49.25 140.949219 49.363281 140.558594 49.363281 Z M 140.558594 49.363281 " fill-opacity="1" fill-rule="nonzero"/></g><g clip-path="url(#b587ed4fda)"><path fill="#263442" d="M 151.683594 87.457031 L 70.707031 87.457031 C 70.316406 87.457031 69.933594 87.339844 69.609375 87.125 L 58.484375 79.636719 C 57.945312 79.273438 57.621094 78.664062 57.621094 78.011719 C 57.621094 77.359375 57.945312 76.75 58.484375 76.390625 L 69.609375 68.902344 C 69.933594 68.683594 70.316406 68.566406 70.707031 68.566406 L 128.957031 68.566406 C 130.039062 68.566406 130.917969 69.441406 130.917969 70.527344 C 130.917969 71.609375 130.039062 72.484375 128.957031 72.484375 L 71.304688 72.484375 L 63.089844 78.011719 L 71.304688 83.542969 L 149.722656 83.542969 L 149.722656 72.484375 L 145.113281 72.484375 C 144.03125 72.484375 143.152344 71.609375 143.152344 70.527344 C 143.152344 69.441406 144.03125 68.566406 145.113281 68.566406 L 151.683594 68.566406 C 152.765625 68.566406 153.640625 69.441406 153.640625 70.527344 L 153.640625 85.5 C 153.644531 86.582031 152.769531 87.457031 151.683594 87.457031 Z M 151.683594 87.457031 " fill-opacity="1" fill-rule="nonzero"/></g><path fill="#263442" d="M 138.953125 72.484375 L 134.785156 72.484375 C 133.703125 72.484375 132.828125 71.605469 132.828125 70.523438 C 132.828125 69.441406 133.703125 68.566406 134.785156 68.566406 L 138.953125 68.566406 C 140.035156 68.566406 140.910156 69.441406 140.910156 70.523438 C 140.910156 71.605469 140.035156 72.484375 138.953125 72.484375 Z M 138.953125 72.484375 " fill-opacity="1" fill-rule="nonzero"/><path fill="#263442" d="M 99.480469 36.042969 L 97.925781 36.042969 C 97.726562 36.042969 97.542969 36.171875 97.480469 36.363281 L 96.429688 39.507812 L 95.386719 36.359375 C 95.324219 36.171875 95.144531 36.042969 94.941406 36.042969 L 93.554688 36.042969 C 93.355469 36.042969 93.175781 36.171875 93.113281 36.363281 L 92.050781 39.484375 L 91.03125 36.367188 C 90.96875 36.171875 90.789062 36.042969 90.585938 36.042969 L 88.929688 36.042969 C 88.78125 36.042969 88.640625 36.113281 88.546875 36.238281 C 88.457031 36.359375 88.433594 36.519531 88.480469 36.664062 L 90.742188 43.496094 C 90.808594 43.6875 90.984375 43.816406 91.1875 43.816406 L 92.746094 43.816406 C 92.949219 43.816406 93.128906 43.6875 93.191406 43.496094 L 94.214844 40.484375 L 95.21875 43.492188 C 95.285156 43.6875 95.464844 43.816406 95.664062 43.816406 L 97.214844 43.816406 C 97.417969 43.816406 97.597656 43.683594 97.664062 43.492188 L 99.921875 36.664062 C 99.96875 36.523438 99.945312 36.363281 99.859375 36.238281 C 99.773438 36.113281 99.632812 36.042969 99.480469 36.042969 Z M 99.480469 36.042969 " fill-opacity="1" fill-rule="nonzero"/><path fill="#263442" d="M 107.027344 41.472656 L 103.875 41.472656 L 103.875 41.039062 L 106.507812 41.039062 C 106.765625 41.039062 106.980469 40.824219 106.980469 40.566406 L 106.980469 39.1875 C 106.980469 38.925781 106.765625 38.714844 106.507812 38.714844 L 103.875 38.714844 L 103.875 38.382812 L 106.898438 38.382812 C 107.160156 38.382812 107.371094 38.171875 107.371094 37.914062 L 107.371094 36.515625 C 107.371094 36.253906 107.160156 36.042969 106.898438 36.042969 L 101.816406 36.042969 C 101.554688 36.042969 101.34375 36.253906 101.34375 36.515625 L 101.34375 43.34375 C 101.34375 43.601562 101.554688 43.816406 101.816406 43.816406 L 107.027344 43.816406 C 107.289062 43.816406 107.5 43.601562 107.5 43.34375 L 107.5 41.945312 C 107.5 41.683594 107.289062 41.472656 107.027344 41.472656 Z M 107.027344 41.472656 " fill-opacity="1" fill-rule="nonzero"/><path fill="#263442" d="M 113.71875 39.160156 C 113.390625 39.03125 112.964844 38.90625 112.460938 38.792969 C 112.121094 38.707031 111.867188 38.636719 111.691406 38.578125 C 111.542969 38.527344 111.460938 38.46875 111.5 38.402344 C 111.554688 38.363281 111.722656 38.28125 112.171875 38.28125 C 112.402344 38.28125 112.640625 38.316406 112.886719 38.386719 C 113.128906 38.457031 113.371094 38.558594 113.605469 38.695312 L 113.804688 38.8125 C 113.925781 38.882812 114.070312 38.894531 114.195312 38.851562 C 114.324219 38.804688 114.425781 38.710938 114.480469 38.582031 L 115.003906 37.292969 C 115.085938 37.085938 115.015625 36.847656 114.832031 36.722656 L 114.695312 36.632812 C 114.359375 36.410156 113.960938 36.238281 113.507812 36.117188 C 112.460938 35.851562 111.292969 35.914062 110.488281 36.265625 C 109.980469 36.488281 109.589844 36.800781 109.328125 37.199219 C 109.0625 37.597656 108.925781 38.050781 108.925781 38.539062 C 108.925781 39.125 109.09375 39.613281 109.417969 39.980469 C 109.703125 40.3125 110.054688 40.5625 110.460938 40.714844 C 110.792969 40.847656 111.210938 40.96875 111.726562 41.089844 C 112.070312 41.175781 112.324219 41.246094 112.5 41.304688 C 112.648438 41.355469 112.730469 41.410156 112.699219 41.449219 C 112.644531 41.488281 112.460938 41.574219 111.992188 41.574219 C 111.683594 41.574219 111.371094 41.515625 111.058594 41.410156 C 110.746094 41.300781 110.488281 41.167969 110.289062 41.007812 L 110.089844 40.851562 C 109.972656 40.757812 109.820312 40.726562 109.683594 40.761719 C 109.542969 40.796875 109.421875 40.898438 109.363281 41.03125 L 108.789062 42.328125 C 108.703125 42.515625 108.753906 42.738281 108.910156 42.875 L 109.019531 42.96875 C 109.355469 43.265625 109.804688 43.496094 110.355469 43.664062 C 110.878906 43.824219 111.425781 43.90625 111.988281 43.90625 C 112.648438 43.90625 113.21875 43.800781 113.691406 43.589844 C 114.203125 43.367188 114.59375 43.054688 114.855469 42.664062 C 115.121094 42.261719 115.257812 41.8125 115.257812 41.324219 C 115.257812 40.742188 115.089844 40.261719 114.761719 39.890625 C 114.480469 39.566406 114.128906 39.320312 113.71875 39.160156 Z M 113.71875 39.160156 " fill-opacity="1" fill-rule="nonzero"/><path fill="#263442" d="M 122.335938 36.042969 L 116.492188 36.042969 C 116.230469 36.042969 116.019531 36.253906 116.019531 36.515625 L 116.019531 37.921875 C 116.019531 38.179688 116.230469 38.390625 116.492188 38.390625 L 118.152344 38.390625 L 118.152344 43.34375 C 118.152344 43.601562 118.363281 43.816406 118.625 43.816406 L 120.210938 43.816406 C 120.472656 43.816406 120.683594 43.601562 120.683594 43.34375 L 120.683594 38.390625 L 122.339844 38.390625 C 122.601562 38.390625 122.8125 38.179688 122.8125 37.921875 L 122.8125 36.515625 C 122.808594 36.253906 122.597656 36.042969 122.335938 36.042969 Z M 122.335938 36.042969 " fill-opacity="1" fill-rule="nonzero"/><path fill="#263442" d="M 102.691406 74.253906 C 102.597656 74.027344 102.351562 73.855469 102.085938 73.855469 L 100.824219 73.855469 C 100.558594 73.855469 100.316406 74.007812 100.199219 74.253906 L 97.074219 81.21875 C 96.976562 81.425781 96.996094 81.652344 97.128906 81.859375 C 97.242188 82.050781 97.449219 82.164062 97.695312 82.164062 L 99.015625 82.164062 C 99.28125 82.164062 99.523438 82.011719 99.640625 81.746094 L 100.148438 80.539062 L 102.75 80.539062 L 103.277344 81.765625 C 103.371094 82.011719 103.617188 82.164062 103.882812 82.164062 L 105.238281 82.164062 C 105.597656 82.164062 105.898438 81.859375 105.898438 81.484375 C 105.898438 81.351562 105.863281 81.238281 105.785156 81.125 Z M 100.636719 78.445312 L 101.445312 76.554688 L 102.257812 78.445312 Z M 100.636719 78.445312 " fill-opacity="1" fill-rule="nonzero"/><path fill="#263442" d="M 95.242188 79.742188 L 91.984375 79.742188 L 91.984375 79.160156 L 94.675781 79.160156 C 95.042969 79.160156 95.339844 78.859375 95.339844 78.492188 L 95.339844 77.425781 C 95.339844 77.058594 95.042969 76.757812 94.675781 76.757812 L 91.984375 76.757812 L 91.984375 76.285156 L 95.105469 76.285156 C 95.472656 76.285156 95.769531 75.984375 95.769531 75.617188 L 95.769531 74.53125 C 95.769531 74.164062 95.472656 73.863281 95.105469 73.863281 L 90.027344 73.863281 C 89.660156 73.863281 89.363281 74.164062 89.363281 74.53125 L 89.363281 81.492188 C 89.363281 81.859375 89.660156 82.160156 90.027344 82.160156 L 95.242188 82.160156 C 95.609375 82.160156 95.910156 81.859375 95.910156 81.492188 L 95.910156 80.40625 C 95.910156 80.039062 95.609375 79.742188 95.242188 79.742188 Z M 95.242188 79.742188 " fill-opacity="1" fill-rule="nonzero"/><path fill="#263442" d="M 112.101562 77.234375 C 111.734375 77.09375 111.273438 76.960938 110.75 76.839844 C 110.382812 76.746094 110.105469 76.667969 109.910156 76.605469 C 109.773438 76.558594 109.664062 76.5 109.609375 76.449219 C 109.609375 76.398438 109.609375 76.371094 109.691406 76.3125 C 109.75 76.269531 109.945312 76.171875 110.449219 76.171875 C 110.699219 76.171875 110.960938 76.210938 111.230469 76.285156 C 111.507812 76.363281 111.773438 76.476562 112.03125 76.625 C 112.136719 76.683594 112.25 76.714844 112.367188 76.714844 L 112.578125 76.679688 C 112.765625 76.617188 112.910156 76.476562 112.984375 76.300781 L 113.394531 75.296875 C 113.511719 75.003906 113.410156 74.667969 113.144531 74.488281 C 112.792969 74.253906 112.367188 74.070312 111.875 73.941406 C 110.722656 73.648438 109.492188 73.722656 108.644531 74.097656 C 108.109375 74.332031 107.695312 74.664062 107.410156 75.085938 C 107.132812 75.511719 106.992188 75.988281 106.992188 76.503906 C 106.992188 77.125 107.164062 77.640625 107.507812 78.03125 C 107.808594 78.378906 108.179688 78.640625 108.617188 78.8125 C 108.984375 78.949219 109.445312 79.082031 109.976562 79.207031 C 110.320312 79.292969 110.605469 79.375 110.824219 79.441406 C 110.949219 79.484375 111.054688 79.542969 111.121094 79.605469 C 111.121094 79.632812 111.121094 79.652344 111.042969 79.703125 C 110.976562 79.746094 110.769531 79.84375 110.25 79.84375 C 109.914062 79.84375 109.566406 79.785156 109.21875 79.664062 C 108.878906 79.546875 108.589844 79.398438 108.371094 79.222656 C 108.25 79.128906 108.109375 79.078125 107.957031 79.078125 L 107.789062 79.097656 C 107.597656 79.148438 107.4375 79.28125 107.34375 79.472656 L 106.902344 80.472656 C 106.78125 80.742188 106.847656 81.054688 107.070312 81.253906 C 107.421875 81.5625 107.90625 81.8125 108.5 81.992188 C 109.054688 82.164062 109.644531 82.25 110.25 82.25 C 110.949219 82.25 111.558594 82.136719 112.0625 81.914062 C 112.601562 81.679688 113.019531 81.351562 113.300781 80.929688 C 113.582031 80.507812 113.726562 80.03125 113.726562 79.515625 C 113.726562 78.898438 113.550781 78.390625 113.207031 78 C 112.910156 77.667969 112.535156 77.40625 112.101562 77.234375 Z M 112.101562 77.234375 " fill-opacity="1" fill-rule="nonzero"/><path fill="#263442" d="M 121.238281 73.863281 L 115.335938 73.863281 C 114.96875 73.863281 114.671875 74.164062 114.671875 74.53125 L 114.671875 75.625 C 114.671875 75.992188 114.96875 76.292969 115.335938 76.292969 L 116.976562 76.292969 L 116.976562 81.492188 C 116.976562 81.859375 117.273438 82.160156 117.640625 82.160156 L 118.933594 82.160156 C 119.300781 82.160156 119.597656 81.859375 119.597656 81.492188 L 119.597656 76.292969 L 121.238281 76.292969 C 121.605469 76.292969 121.90625 75.992188 121.90625 75.625 L 121.90625 74.53125 C 121.90625 74.164062 121.605469 73.863281 121.238281 73.863281 Z M 121.238281 73.863281 " fill-opacity="1" fill-rule="nonzero"/><g clip-path="url(#4e9824b5ab)"><path fill="#263442" d="M 146.113281 127.238281 L 138.617188 127.238281 C 137.535156 127.238281 136.660156 126.363281 136.660156 125.28125 C 136.660156 124.199219 137.535156 123.324219 138.617188 123.324219 L 146.113281 123.324219 C 147.199219 123.324219 148.074219 124.199219 148.074219 125.28125 C 148.074219 126.363281 147.199219 127.238281 146.113281 127.238281 Z M 146.113281 127.238281 " fill-opacity="1" fill-rule="nonzero"/></g><g clip-path="url(#76b4e5ca41)"><path fill="#263442" d="M 133.121094 127.238281 L 131.246094 127.238281 C 130.160156 127.238281 129.285156 126.363281 129.285156 125.28125 C 129.285156 124.199219 130.160156 123.324219 131.246094 123.324219 L 133.121094 123.324219 C 134.203125 123.324219 135.078125 124.199219 135.078125 125.28125 C 135.078125 126.363281 134.203125 127.238281 133.121094 127.238281 Z M 133.121094 127.238281 " fill-opacity="1" fill-rule="nonzero"/></g><g clip-path="url(#bd2ce03534)"><path fill="#263442" d="M 125.75 127.238281 L 81.144531 127.238281 C 80.0625 127.238281 79.1875 126.363281 79.1875 125.28125 C 79.1875 124.199219 80.0625 123.324219 81.144531 123.324219 L 125.75 123.324219 C 126.832031 123.324219 127.710938 124.199219 127.710938 125.28125 C 127.710938 126.363281 126.832031 127.238281 125.75 127.238281 Z M 125.75 127.238281 " fill-opacity="1" fill-rule="nonzero"/></g><g clip-path="url(#31efe7e450)"><path fill="#263442" d="M 75.644531 127.238281 L 65.152344 127.238281 C 64.070312 127.238281 63.195312 126.363281 63.195312 125.28125 C 63.195312 124.199219 64.070312 123.324219 65.152344 123.324219 L 75.644531 123.324219 C 76.726562 123.324219 77.605469 124.199219 77.605469 125.28125 C 77.605469 126.363281 76.726562 127.238281 75.644531 127.238281 Z M 75.644531 127.238281 " fill-opacity="1" fill-rule="nonzero"/></g></svg>