<svg xmlns="http://www.w3.org/2000/svg" xmlns:xlink="http://www.w3.org/1999/xlink" width="282" zoomAndPan="magnify" viewBox="0 0 211.5 155.999997" height="208" preserveAspectRatio="xMidYMid meet" version="1.0"><defs><clipPath id="2d8e0be59d"><path d="M 0 0.183594 L 211 0.183594 L 211 155.816406 L 0 155.816406 Z M 0 0.183594 " clip-rule="nonzero"/></clipPath><clipPath id="e869eed1c4"><path d="M 49 27.125 L 157.574219 27.125 L 157.574219 129 L 49 129 Z M 49 27.125 " clip-rule="nonzero"/></clipPath></defs><g clip-path="url(#2d8e0be59d)"><path fill="#ffffff" d="M 0 0.183594 L 211.5 0.183594 L 211.5 163.683594 L 0 163.683594 Z M 0 0.183594 " fill-opacity="1" fill-rule="nonzero"/><path fill="#ffffff" d="M 0 0.183594 L 211.5 0.183594 L 211.5 156.183594 L 0 156.183594 Z M 0 0.183594 " fill-opacity="1" fill-rule="nonzero"/><path fill="#398fe5" d="M 0 0.183594 L 211.5 0.183594 L 211.5 156.183594 L 0 156.183594 Z M 0 0.183594 " fill-opacity="1" fill-rule="nonzero"/></g><g clip-path="url(#e869eed1c4)"><path fill="#ffe040" d="M 155.964844 67.308594 C 153.539062 67.84375 151.277344 68.765625 149.167969 70.078125 C 141.542969 74.84375 136.644531 83.882812 137.5 92.921875 C 137.59375 93.914062 136.308594 94.507812 135.503906 94.121094 C 132.574219 92.699219 129.203125 92.363281 126.019531 92.988281 C 123.15625 93.542969 120.621094 94.765625 118.410156 96.664062 C 115.976562 98.765625 114.441406 101.65625 113.675781 104.75 C 112.765625 108.40625 112.816406 112.199219 112.960938 115.9375 C 113.105469 119.808594 113.351562 123.679688 113.015625 127.546875 C 112.910156 128.707031 110.839844 129.054688 110.585938 127.820312 C 109.699219 123.523438 108.816406 119.230469 107.933594 114.9375 C 107.148438 111.136719 106.367188 107.335938 105.585938 103.542969 C 105.042969 100.902344 104.570312 97.441406 101.8125 96.175781 C 99.140625 94.949219 95.867188 96.523438 93.523438 97.796875 C 90.519531 99.433594 87.78125 101.429688 85.3125 103.796875 C 84.789062 104.304688 83.980469 104.585938 83.371094 104.03125 C 82.027344 102.828125 80.527344 101.875 78.867188 101.167969 C 72.933594 98.601562 65.992188 99.195312 59.722656 99.769531 C 59.359375 99.800781 59.078125 99.667969 58.875 99.367188 C 58.671875 99.066406 58.652344 98.757812 58.816406 98.433594 C 59.671875 96.621094 60.144531 94.71875 60.238281 92.71875 C 60.566406 85.757812 56.433594 78.308594 49.761719 75.796875 C 49.230469 75.597656 48.828125 75.074219 49.15625 74.5 C 53.441406 67 54.15625 57.679688 51.015625 49.628906 C 50.789062 49.042969 51.183594 48.402344 51.738281 48.171875 C 55.488281 46.632812 59.011719 44.675781 62.300781 42.300781 C 65.589844 39.925781 68.554688 37.199219 71.195312 34.117188 C 71.691406 33.535156 72.539062 33.398438 73.136719 33.878906 C 76.714844 36.75 81.746094 36.9375 85.992188 35.710938 C 90.425781 34.429688 94.25 31.707031 97.960938 29.054688 C 98.917969 28.371094 99.949219 27.691406 101.121094 27.449219 C 102.292969 27.207031 103.429688 27.4375 104.472656 27.972656 C 105.429688 28.457031 106.246094 29.15625 107.140625 29.746094 C 108 30.3125 108.890625 30.816406 109.820312 31.257812 C 116.90625 34.644531 125.847656 34.160156 132.371094 29.71875 C 132.855469 29.390625 133.617188 29.214844 134.082031 29.703125 C 134.28125 29.921875 134.351562 30.175781 134.289062 30.464844 C 134.394531 30.648438 134.4375 30.847656 134.414062 31.0625 C 134.386719 31.277344 134.300781 31.460938 134.152344 31.617188 C 132.378906 33.445312 132.832031 36.558594 134.53125 38.292969 C 136.542969 40.335938 139.851562 40.347656 142.300781 39.179688 C 143.058594 38.8125 144.011719 39.179688 143.933594 40.097656 C 143.757812 42.277344 143.855469 44.445312 144.222656 46.597656 C 145.503906 54.203125 150.050781 61.273438 156.625 65.355469 C 157.585938 65.949219 156.824219 67.121094 155.964844 67.308594 Z M 155.964844 67.308594 " fill-opacity="1" fill-rule="nonzero"/></g><path fill="#ffffff" d="M 80.304688 49.6875 C 78.210938 47.789062 74.707031 47.519531 72.476562 49.320312 C 71.859375 48.609375 70.109375 49.253906 70.234375 50.351562 C 70.617188 53.765625 71.140625 57.164062 71.804688 60.539062 C 72.039062 61.734375 72.277344 63.074219 73.199219 63.960938 C 74.367188 65.074219 75.957031 64.671875 77.148438 63.832031 C 79.480469 62.195312 81.496094 59.742188 82.191406 56.941406 C 82.8125 54.449219 82.257812 51.464844 80.304688 49.6875 Z M 79.875 56.480469 C 79.496094 58.582031 78.121094 60.382812 76.507812 61.722656 C 76.253906 61.941406 75.789062 62.457031 75.453125 62.515625 C 75.230469 62.554688 75.054688 62.332031 74.917969 62.136719 C 74.332031 61.261719 74.25 60.035156 74.0625 59.035156 C 73.582031 56.492188 73.179688 53.9375 72.859375 51.367188 C 73.152344 51.347656 73.410156 51.242188 73.632812 51.050781 C 74.890625 49.878906 76.871094 50.039062 78.191406 51.101562 C 79.746094 52.355469 80.222656 54.585938 79.875 56.480469 Z M 79.875 56.480469 " fill-opacity="1" fill-rule="nonzero"/><path fill="#ffffff" d="M 92.152344 51.375 C 91.710938 50.007812 90.679688 48.863281 89.308594 48.410156 C 89.265625 48.390625 89.21875 48.378906 89.171875 48.363281 C 87.390625 47.867188 85.433594 48.410156 84.660156 50.21875 C 84.011719 51.738281 84.136719 53.519531 84.394531 55.113281 C 84.621094 56.527344 84.953125 58.027344 85.570312 59.328125 C 85.824219 59.867188 86.171875 60.386719 86.726562 60.65625 C 87.527344 61.042969 88.472656 60.8125 89.175781 60.316406 C 89.835938 59.84375 90.257812 59.15625 90.660156 58.46875 C 91.089844 57.765625 91.460938 57.03125 91.78125 56.269531 C 92.414062 54.683594 92.679688 53.027344 92.152344 51.375 Z M 89.75 55.160156 C 89.386719 56.3125 88.859375 57.382812 88.164062 58.371094 C 88.164062 58.371094 88.101562 58.449219 88.027344 58.539062 C 88.007812 58.515625 87.988281 58.492188 87.972656 58.464844 C 87.875 58.292969 87.789062 58.113281 87.71875 57.925781 C 86.929688 55.984375 86.304688 53.21875 86.769531 51.148438 C 86.78125 51.101562 86.847656 50.871094 86.847656 50.855469 C 86.894531 50.742188 86.945312 50.636719 86.996094 50.527344 C 87.011719 50.488281 87.027344 50.460938 87.035156 50.445312 C 87.023438 50.472656 87.023438 50.496094 87.105469 50.375 C 87.109375 50.367188 87.117188 50.359375 87.121094 50.351562 C 87.144531 50.332031 87.167969 50.316406 87.191406 50.304688 C 87.164062 50.320312 87.144531 50.328125 87.125 50.339844 C 87.128906 50.328125 87.132812 50.320312 87.136719 50.3125 C 87.171875 50.292969 87.207031 50.28125 87.246094 50.277344 C 87.351562 50.277344 87.460938 50.285156 87.246094 50.292969 C 87.324219 50.292969 87.648438 50.308594 87.601562 50.292969 C 87.785156 50.324219 87.964844 50.367188 88.144531 50.421875 C 90.066406 50.980469 90.210938 53.613281 89.75 55.160156 Z M 89.75 55.160156 " fill-opacity="1" fill-rule="nonzero"/><path fill="#ffffff" d="M 103.355469 48.085938 C 103.25 46.683594 100.820312 47.339844 100.910156 48.632812 C 101.03125 50.265625 100.949219 51.886719 100.65625 53.5 L 99.390625 51.128906 C 98.6875 49.8125 97.878906 47.347656 95.96875 47.640625 C 94.0625 47.929688 93.71875 50.316406 93.453125 51.886719 C 93.140625 53.722656 93.109375 55.558594 93.363281 57.402344 C 93.554688 58.808594 95.980469 58.140625 95.804688 56.859375 C 95.613281 55.515625 95.589844 54.167969 95.734375 52.816406 C 95.808594 52.15625 95.921875 51.503906 96.078125 50.859375 C 96.109375 50.722656 96.144531 50.585938 96.179688 50.453125 C 96.269531 50.628906 96.355469 50.808594 96.449219 50.980469 C 96.824219 51.683594 97.195312 52.386719 97.574219 53.085938 L 99.820312 57.304688 C 100.269531 58.140625 101.769531 57.898438 102.082031 57.039062 C 103.152344 54.144531 103.574219 51.160156 103.355469 48.085938 Z M 96.445312 49.5625 C 96.445312 49.554688 96.445312 49.554688 96.445312 49.550781 C 96.410156 49.402344 96.636719 49.460938 96.445312 49.5625 Z M 96.445312 49.5625 " fill-opacity="1" fill-rule="nonzero"/><path fill="#ffffff" d="M 106.234375 42.339844 L 105.355469 44.539062 C 104.761719 46.019531 107.097656 46.304688 107.585938 45.078125 C 107.878906 44.347656 108.171875 43.613281 108.464844 42.878906 C 109.058594 41.398438 106.722656 41.113281 106.234375 42.339844 Z M 106.234375 42.339844 " fill-opacity="1" fill-rule="nonzero"/><path fill="#ffffff" d="M 118.257812 45.933594 C 118.1875 45.292969 117.484375 45.058594 116.929688 45.171875 C 113.855469 45.835938 111.171875 47.242188 108.878906 49.390625 C 108.472656 49.777344 108.136719 50.40625 108.605469 50.894531 C 109.019531 51.328125 109.894531 51.277344 110.316406 50.878906 C 110.921875 50.308594 111.566406 49.789062 112.257812 49.324219 C 112.414062 51.429688 112.570312 53.53125 112.726562 55.636719 C 112.832031 57.039062 115.261719 56.382812 115.167969 55.089844 C 114.992188 52.746094 114.820312 50.402344 114.644531 48.058594 L 114.644531 48.03125 C 115.453125 47.6875 116.289062 47.421875 117.148438 47.234375 C 117.71875 47.109375 118.328125 46.574219 118.257812 45.933594 Z M 118.257812 45.933594 " fill-opacity="1" fill-rule="nonzero"/><path fill="#ffffff" d="M 82.582031 73.59375 C 82.480469 73.230469 82.28125 72.902344 81.871094 72.832031 C 80.773438 72.652344 79.6875 72.707031 78.617188 73.003906 C 77.546875 73.300781 76.585938 73.808594 75.738281 74.527344 C 75.628906 74.523438 75.523438 74.53125 75.417969 74.554688 C 75.101562 74.613281 74.839844 74.761719 74.632812 75.007812 C 74.425781 75.25 74.316406 75.535156 74.304688 75.855469 C 74.167969 79.84375 74.675781 83.75 75.832031 87.570312 C 76.015625 88.1875 76.953125 88.167969 77.410156 87.953125 C 77.996094 87.675781 78.316406 87.117188 78.128906 86.496094 C 77.15625 83.191406 76.6875 79.816406 76.726562 76.367188 C 76.851562 76.289062 76.964844 76.195312 77.070312 76.089844 C 77.496094 75.671875 77.992188 75.351562 78.546875 75.136719 C 79.105469 74.917969 79.683594 74.816406 80.28125 74.835938 C 80.542969 76.804688 79.714844 78.9375 77.875 79.875 C 77.367188 80.128906 76.878906 80.734375 77.15625 81.328125 C 77.421875 81.902344 78.226562 81.96875 78.730469 81.707031 C 81.621094 80.25 83.46875 76.808594 82.582031 73.59375 Z M 82.582031 73.59375 " fill-opacity="1" fill-rule="nonzero"/><path fill="#ffffff" d="M 91.296875 74.757812 C 91.097656 73.832031 90.957031 72.753906 90.363281 71.980469 C 89.695312 71.105469 88.527344 70.96875 87.546875 71.363281 C 85.648438 72.132812 84.71875 74.449219 84.128906 76.257812 C 83.484375 78.273438 83.308594 80.328125 83.609375 82.425781 C 83.804688 83.828125 86.230469 83.164062 86.050781 81.882812 C 85.921875 80.972656 85.894531 80.058594 85.964844 79.140625 C 86.230469 79.246094 86.503906 79.273438 86.785156 79.222656 L 89.421875 78.785156 L 89.429688 78.785156 C 89.5625 79.867188 89.65625 80.953125 89.703125 82.042969 C 89.769531 83.445312 92.207031 82.789062 92.144531 81.496094 C 92.046875 79.226562 91.761719 76.980469 91.296875 74.757812 Z M 86.574219 77.167969 C 86.464844 77.1875 86.363281 77.21875 86.265625 77.265625 L 86.28125 77.199219 C 86.597656 75.902344 87.128906 74.234375 88.15625 73.320312 L 88.1875 73.296875 C 88.230469 73.339844 88.285156 73.382812 88.277344 73.371094 C 88.414062 73.59375 88.511719 73.832031 88.574219 74.085938 C 88.804688 74.914062 88.957031 75.769531 89.109375 76.613281 C 89.117188 76.65625 89.121094 76.699219 89.128906 76.742188 Z M 86.574219 77.167969 " fill-opacity="1" fill-rule="nonzero"/><path fill="#ffffff" d="M 100.785156 72.054688 L 100.25 76.066406 C 100.164062 76.707031 100.082031 77.34375 99.996094 77.980469 L 99.871094 77.761719 L 98.828125 76.058594 L 96.757812 72.652344 C 96.300781 71.890625 95.175781 72.007812 94.660156 72.664062 C 92.929688 74.875 92.5625 78.007812 93.980469 80.472656 C 94.300781 81.035156 95.003906 81.117188 95.558594 80.855469 C 96.03125 80.632812 96.601562 79.960938 96.277344 79.398438 C 95.609375 78.238281 95.402344 77.003906 95.660156 75.6875 C 96.167969 76.523438 96.671875 77.359375 97.179688 78.195312 C 97.929688 79.425781 98.667969 81.4375 100.464844 80.984375 C 102.082031 80.574219 102.300781 78.824219 102.484375 77.449219 C 102.726562 75.652344 102.964844 73.855469 103.207031 72.058594 C 103.402344 70.5625 100.957031 70.78125 100.785156 72.054688 Z M 100.785156 72.054688 " fill-opacity="1" fill-rule="nonzero"/><path fill="#ffffff" d="M 108 78.597656 C 107.207031 76.035156 106.964844 73.425781 107.273438 70.761719 C 107.449219 69.261719 105.007812 69.484375 104.859375 70.761719 C 104.507812 73.792969 104.785156 76.761719 105.703125 79.671875 C 105.894531 80.285156 106.820312 80.269531 107.277344 80.050781 C 107.859375 79.78125 108.191406 79.214844 108 78.597656 Z M 108 78.597656 " fill-opacity="1" fill-rule="nonzero"/><path fill="#ffffff" d="M 118.054688 75.71875 C 117.785156 75.140625 116.988281 75.085938 116.476562 75.339844 C 115.058594 76.039062 113.101562 75.382812 112.339844 73.945312 C 111.617188 72.585938 111.96875 70.460938 113.363281 69.671875 C 113.859375 69.394531 114.367188 68.828125 114.082031 68.21875 C 113.828125 67.664062 113 67.554688 112.507812 67.839844 C 110.082031 69.210938 108.660156 72.402344 110.042969 75.019531 C 111.398438 77.578125 114.808594 78.425781 117.335938 77.171875 C 117.84375 76.921875 118.328125 76.3125 118.054688 75.71875 Z M 118.054688 75.71875 " fill-opacity="1" fill-rule="nonzero"/></svg>